# xmcd
#
# Track frame offsets:
#	150
#	11397
#	29032
#	47659
#	67485
#	81011
#	101055
#	121123
#	134810
#	150509
#	169579
#	183522
#	201596
#	218075
#
# Disc length: 3063 seconds
#
# Revision: 2
# Processed by: cddbd v1.5.2PL0 Copyright (c) Steve Scherf et al.
# Submitted via: audiograbber 1.81.03
#
DISCID=cb0bf50e
DTITLE=Tim Harwill`Pruden - Thru the Bottom of a Glass
DYEAR=2005
DGENRE=Country
TTITLE0=World Out There
TTITLE1=Every Mile
TTITLE2=Plough Boy Blues
TTITLE3=Just Once
TTITLE4=Fine Lookin Woman
TTITLE5=Thru the Bottom of a Glass
TTITLE6=Finer Place
TTITLE7=Match Made in Heaven
TTITLE8=This Old World
TTITLE9=May 1968 Cynthia
TTITLE10=Still Singin
TTITLE11=Stranger Passed This Way
TTITLE12=One Time Fit
TTITLE13=Movin Along
EXTD=
EXTT0=
EXTT1=
EXTT2=
EXTT3=
EXTT4=
EXTT5=
EXTT6=
EXTT7=
EXTT8=
EXTT9=
EXTT10=
EXTT11=
EXTT12=
EXTT13=
PLAYORDER=
